<svg width="162" height="32" viewBox="0 0 162 32" fill="none" xmlns="http://www.w3.org/2000/svg">
<path d="M33.152 22V19.584H34.656V18.464H33.152V11.712H31.856L26.704 18.304V19.584H31.712V22H33.152ZM28.032 18.464L31.712 13.616V18.464H28.032ZM43.7948 18.576C43.7948 16.656 42.7868 14.928 40.0668 14.928C39.0108 14.928 38.2748 15.264 37.6828 15.744L37.8588 12.832H43.3148V11.712H36.7388L36.4188 17.104L37.6828 17.232C38.0668 16.656 38.7388 16.144 39.9548 16.144C41.8108 16.144 42.3868 17.392 42.3868 18.592C42.3868 20.08 41.5708 20.976 39.9548 20.976C38.4348 20.976 37.6028 20.256 37.4268 19.104H36.0188C36.2908 21.04 37.6668 22.192 39.9708 22.192C42.4828 22.192 43.7948 20.688 43.7948 18.576ZM50.0086 13.776C50.0086 12.816 50.8086 12.192 52.1846 12.192C53.5766 12.192 54.5046 12.816 54.8406 14.256H56.3926C55.9926 11.936 54.3126 10.928 52.2166 10.928C49.8166 10.928 48.5046 12.304 48.5046 13.872C48.5046 18.272 55.1766 15.792 55.1766 19.12C55.1766 20.208 54.3126 20.928 52.6806 20.928C51.1126 20.928 50.1366 20.224 49.7846 18.928H48.2486C48.7286 21.12 50.3286 22.192 52.6646 22.192C54.9846 22.192 56.6806 21.024 56.6806 18.928C56.6806 14.464 50.0086 16.848 50.0086 13.776ZM63.8093 18.528C63.8093 19.744 62.9933 20.992 61.6173 20.992C60.3693 20.992 59.8093 20.176 59.8093 18.896V13.504H58.4013V19.184C58.4013 21.152 59.4573 22.192 61.2333 22.192C62.3373 22.192 63.2333 21.744 63.8093 20.848V22H65.2173V13.504H63.8093V18.528ZM68.8718 22V20.992C69.4318 21.776 70.2478 22.192 71.2558 22.192C73.4798 22.192 74.8718 20.608 74.8718 17.728C74.8718 14.96 73.5118 13.296 71.2558 13.296C70.2478 13.296 69.4318 13.76 68.8718 14.56V10.48H67.4638V22H68.8718ZM71.1598 14.512C72.5998 14.512 73.4318 15.68 73.4318 17.728C73.4318 19.824 72.6318 20.976 71.1598 20.976C69.7038 20.976 68.8718 19.792 68.8718 17.728C68.8718 15.648 69.6718 14.512 71.1598 14.512ZM76.6505 18.24H80.9065V17.04H76.6505V18.24ZM92.2236 14.256C91.6956 12.08 89.9036 10.928 87.8076 10.928C84.7356 10.928 82.8636 13.104 82.8636 16.576C82.8636 20.064 84.7036 22.192 87.7436 22.192C89.8236 22.192 91.5996 20.992 92.2076 18.928H90.6556C90.1916 20.24 89.1036 20.928 87.7596 20.928C85.6156 20.928 84.3676 19.296 84.3676 16.576C84.3676 13.856 85.6316 12.192 87.7596 12.192C89.1516 12.192 90.2876 12.928 90.6876 14.256H92.2236ZM95.3223 16.272C95.4983 15.184 96.1543 14.512 97.3703 14.512C98.8263 14.512 99.4663 15.264 99.4663 16.64V16.832C97.8343 16.848 96.6663 16.944 95.5143 17.328C94.2663 17.744 93.6263 18.592 93.6263 19.76C93.6263 21.376 94.8103 22.192 96.5703 22.192C97.5943 22.192 98.7463 21.728 99.4663 20.656C99.4823 21.168 99.5303 21.664 99.6903 22H101.178C100.954 21.536 100.874 20.928 100.874 19.952V16.608C100.874 14.624 99.7703 13.296 97.4983 13.296C95.4183 13.296 94.1863 14.4 93.9143 16.272H95.3223ZM95.0663 19.728C95.0663 18.688 95.8503 17.92 99.4663 17.888V18.288C99.4663 19.744 98.2823 20.976 96.7143 20.976C95.7223 20.976 95.0663 20.512 95.0663 19.728ZM103.375 19.552C103.375 21.344 104.127 22.192 105.711 22.192C106.111 22.192 106.463 22.144 106.623 22.064V21.056H106.335C105.087 21.056 104.783 20.576 104.783 19.552V14.624H106.655V13.504H104.783V11.552H103.375V13.504H102.191V14.624H103.375V19.552ZM115.339 19.232H113.867C113.563 20.4 112.715 20.976 111.515 20.976C109.979 20.976 109.083 19.904 109.003 18H115.275V17.648C115.275 14.944 113.835 13.296 111.435 13.296C109.051 13.296 107.563 14.88 107.563 17.76C107.563 20.528 109.051 22.192 111.515 22.192C113.451 22.192 114.875 21.216 115.339 19.232ZM111.435 14.512C112.763 14.512 113.611 15.376 113.803 16.944H109.051C109.259 15.36 110.075 14.512 111.435 14.512ZM120.175 22.064C121.263 22.064 122.127 21.648 122.719 20.848V22.304C122.719 23.888 121.887 24.56 120.639 24.56C119.407 24.56 118.527 23.952 118.351 22.832H116.943C117.247 24.768 118.655 25.728 120.655 25.728C122.607 25.728 124.127 24.624 124.127 22.256V13.504H122.719V14.432C122.159 13.696 121.311 13.296 120.175 13.296C118.047 13.296 116.719 14.848 116.719 17.696C116.719 20.416 118.015 22.064 120.175 22.064ZM120.431 20.848C118.975 20.848 118.159 19.696 118.159 17.696C118.159 15.632 118.959 14.512 120.431 14.512C121.887 14.512 122.719 15.68 122.719 17.68C122.719 19.728 121.919 20.848 120.431 20.848ZM129.842 22.192C132.226 22.192 133.73 20.624 133.73 17.76C133.73 14.992 132.274 13.296 129.842 13.296C127.458 13.296 125.954 14.88 125.954 17.76C125.954 20.528 127.41 22.192 129.842 22.192ZM129.842 20.976C128.274 20.976 127.394 19.808 127.394 17.76C127.394 15.664 128.258 14.512 129.842 14.512C131.41 14.512 132.29 15.696 132.29 17.76C132.29 19.84 131.426 20.976 129.842 20.976ZM135.542 22H136.95V17.248C136.95 15.712 137.686 14.656 139.382 14.656C139.718 14.656 140.022 14.688 140.262 14.768V13.504C140.102 13.376 139.798 13.296 139.462 13.296C138.438 13.296 137.526 13.776 136.95 14.816V13.504H135.542V22ZM141.511 12.368H142.919V10.48H141.511V12.368ZM141.511 22H142.919V13.504H141.511V22ZM152.495 19.232H151.023C150.719 20.4 149.871 20.976 148.671 20.976C147.135 20.976 146.239 19.904 146.159 18H152.431V17.648C152.431 14.944 150.991 13.296 148.591 13.296C146.207 13.296 144.719 14.88 144.719 17.76C144.719 20.528 146.207 22.192 148.671 22.192C150.607 22.192 152.031 21.216 152.495 19.232ZM148.591 14.512C149.919 14.512 150.767 15.376 150.959 16.944H146.207C146.415 15.36 147.231 14.512 148.591 14.512ZM155.348 15.68C155.348 14.976 155.956 14.448 157.012 14.448C158.212 14.448 158.948 14.944 159.156 16.272H160.564C160.292 14.16 158.932 13.296 157.092 13.296C155.012 13.296 154.004 14.48 154.004 15.776C154.004 19.296 159.46 17.376 159.46 19.696C159.46 20.496 158.788 21.072 157.508 21.072C156.196 21.072 155.316 20.416 155.124 19.232H153.715C154.036 21.232 155.444 22.192 157.46 22.192C159.46 22.192 160.868 21.184 160.868 19.6C160.868 16.096 155.348 18.048 155.348 15.68Z" fill="#202229" fill-opacity="0.8"/>
<path d="M0 17H8V7H0V17ZM0 25H8V19H0V25ZM10 25H18V15H10V25ZM10 7V13H18V7H10Z" fill="#A285D0"/>
</svg>
