<svg width="118" height="32" viewBox="0 0 118 32" fill="none" xmlns="http://www.w3.org/2000/svg">
<path d="M26.208 22H31.616V20.88H29.648V11.712H28.416V11.904C28.416 12.368 28.208 12.56 27.376 12.56H26.208V13.68H28.176V20.88H26.208V22ZM37.8268 22.192C40.3228 22.192 41.8268 20.304 41.8268 16.864C41.8268 13.504 40.3548 11.52 37.8268 11.52C35.3148 11.52 33.8108 13.424 33.8108 16.864C33.8108 20.208 35.2828 22.192 37.8268 22.192ZM37.8268 20.976C36.1788 20.976 35.2508 19.456 35.2508 16.864C35.2508 14.192 36.1628 12.736 37.8268 12.736C39.4588 12.736 40.3868 14.24 40.3868 16.864C40.3868 19.504 39.4748 20.976 37.8268 20.976ZM44.6455 22H50.0535V20.88H48.0855V11.712H46.8535V11.904C46.8535 12.368 46.6455 12.56 45.8135 12.56H44.6455V13.68H46.6135V20.88H44.6455V22ZM53.8643 22H59.2723V20.88H57.3043V11.712H56.0723V11.904C56.0723 12.368 55.8643 12.56 55.0323 12.56H53.8643V13.68H55.8323V20.88H53.8643V22ZM65.3261 22H66.7981V18.032H69.0701C71.5021 18.032 73.0701 16.752 73.0701 14.56C73.0701 12.432 71.5181 11.12 69.0541 11.12H65.3261V22ZM69.0381 12.32C70.5901 12.32 71.5501 13.2 71.5501 14.576C71.5501 15.968 70.6061 16.832 68.9901 16.832H66.7981V12.32H69.0381ZM74.8231 22H76.2311V17.248C76.2311 15.712 76.9671 14.656 78.6631 14.656C78.9991 14.656 79.3031 14.688 79.5431 14.768V13.504C79.3831 13.376 79.0791 13.296 78.7431 13.296C77.7191 13.296 76.8071 13.776 76.2311 14.816V13.504H74.8231V22ZM84.0916 22.192C86.4756 22.192 87.9796 20.624 87.9796 17.76C87.9796 14.992 86.5236 13.296 84.0916 13.296C81.7076 13.296 80.2036 14.88 80.2036 17.76C80.2036 20.528 81.6596 22.192 84.0916 22.192ZM84.0916 20.976C82.5236 20.976 81.6436 19.808 81.6436 17.76C81.6436 15.664 82.5076 14.512 84.0916 14.512C85.6596 14.512 86.5396 15.696 86.5396 17.76C86.5396 19.84 85.6756 20.976 84.0916 20.976ZM88.7519 14.624H89.9359V22H91.3439V14.624H93.0239V13.504H91.3439V12.928C91.3439 11.904 91.6479 11.424 92.8799 11.424H93.0239V10.416C92.8799 10.352 92.5919 10.288 92.2399 10.288C90.6719 10.288 89.9359 11.136 89.9359 12.928V13.504H88.7519V14.624ZM94.1439 12.368H95.5519V10.48H94.1439V12.368ZM94.1439 22H95.5519V13.504H94.1439V22ZM97.7919 22H99.1999V10.48H97.7919V22ZM108.777 19.232H107.305C107.001 20.4 106.153 20.976 104.953 20.976C103.417 20.976 102.521 19.904 102.441 18H108.713V17.648C108.713 14.944 107.273 13.296 104.873 13.296C102.489 13.296 101.001 14.88 101.001 17.76C101.001 20.528 102.489 22.192 104.953 22.192C106.889 22.192 108.312 21.216 108.777 19.232ZM104.873 14.512C106.201 14.512 107.049 15.376 107.241 16.944H102.489C102.697 15.36 103.513 14.512 104.873 14.512ZM111.629 15.68C111.629 14.976 112.237 14.448 113.293 14.448C114.493 14.448 115.229 14.944 115.437 16.272H116.845C116.573 14.16 115.213 13.296 113.373 13.296C111.293 13.296 110.285 14.48 110.285 15.776C110.285 19.296 115.741 17.376 115.741 19.696C115.741 20.496 115.069 21.072 113.789 21.072C112.477 21.072 111.597 20.416 111.405 19.232H109.997C110.317 21.232 111.725 22.192 113.741 22.192C115.741 22.192 117.149 21.184 117.149 19.6C117.149 16.096 111.629 18.048 111.629 15.68Z" fill="#202229" fill-opacity="0.8"/>
<path d="M6.82485 17.6147V24.1467H0C0 22.4143 0.719044 20.7529 1.99895 19.5279C3.27886 18.3029 5.01479 17.6147 6.82485 17.6147ZM11.9435 23.7385L9.4362 25L9.9148 22.3284L7.88696 20.4357L10.6903 20.0454L11.9435 17.6147L13.1975 20.0454L16 20.4357L13.9722 22.3284L14.4499 25L11.9435 23.7385ZM6.82485 16.7981C3.9968 16.7981 1.70621 14.6058 1.70621 11.8991C1.70621 9.19233 3.9968 7 6.82485 7C9.65289 7 11.9435 9.19233 11.9435 11.8991C11.9435 14.6058 9.65289 16.7981 6.82485 16.7981Z" fill="#A285D0"/>
</svg>
