<svg width="93" height="32" viewBox="0 0 93 32" fill="none" xmlns="http://www.w3.org/2000/svg">
<path d="M24.736 14.976C24.736 17.232 26.224 18.528 28.416 18.528C29.6 18.528 30.608 17.968 31.168 16.992C31.168 19.568 30.224 20.976 28.48 20.976C27.344 20.976 26.48 20.384 26.144 19.184H24.704C25.184 21.136 26.56 22.192 28.432 22.192C30.944 22.192 32.512 20.304 32.512 16.816C32.512 13.184 30.976 11.536 28.496 11.52C28.48 11.52 28.48 11.52 28.464 11.52C26.272 11.52 24.736 12.8 24.736 14.976ZM28.512 12.736C29.904 12.736 30.832 13.568 30.832 14.976C30.832 16.464 29.904 17.312 28.512 17.312C27.104 17.312 26.176 16.448 26.176 14.976C26.176 13.536 27.104 12.736 28.512 12.736ZM37.9068 22.192C40.1948 22.192 41.7308 21.072 41.7308 19.168C41.7308 18.032 41.0748 17.12 39.9708 16.64C40.8508 16.176 41.3788 15.376 41.3788 14.352C41.3788 12.576 39.9708 11.52 37.9068 11.52C35.8588 11.52 34.4508 12.64 34.4508 14.352C34.4508 15.392 34.9628 16.176 35.8268 16.624C34.7388 17.104 34.0828 17.968 34.0828 19.184C34.0828 21.04 35.6028 22.192 37.9068 22.192ZM37.9068 12.704C39.1708 12.704 40.0028 13.312 40.0028 14.416C40.0028 15.488 39.1388 16.128 37.9068 16.128C36.6588 16.128 35.8268 15.52 35.8268 14.4C35.8268 13.344 36.6748 12.704 37.9068 12.704ZM37.9068 21.008C36.4668 21.008 35.4908 20.288 35.4908 19.12C35.4908 17.872 36.4668 17.184 37.9068 17.184C39.3308 17.184 40.3228 17.888 40.3228 19.104C40.3228 20.32 39.3628 21.008 37.9068 21.008ZM43.1735 14.976C43.1735 17.232 44.6615 18.528 46.8535 18.528C48.0375 18.528 49.0455 17.968 49.6055 16.992C49.6055 19.568 48.6615 20.976 46.9175 20.976C45.7815 20.976 44.9175 20.384 44.5815 19.184H43.1415C43.6215 21.136 44.9975 22.192 46.8695 22.192C49.3815 22.192 50.9495 20.304 50.9495 16.816C50.9495 13.184 49.4135 11.536 46.9335 11.52C46.9175 11.52 46.9175 11.52 46.9015 11.52C44.7095 11.52 43.1735 12.8 43.1735 14.976ZM46.9495 12.736C48.3415 12.736 49.2695 13.568 49.2695 14.976C49.2695 16.464 48.3415 17.312 46.9495 17.312C45.5415 17.312 44.6135 16.448 44.6135 14.976C44.6135 13.536 45.5415 12.736 46.9495 12.736ZM57.2274 13.776C57.2274 12.816 58.0274 12.192 59.4034 12.192C60.7954 12.192 61.7234 12.816 62.0594 14.256H63.6114C63.2114 11.936 61.5314 10.928 59.4354 10.928C57.0354 10.928 55.7234 12.304 55.7234 13.872C55.7234 18.272 62.3954 15.792 62.3954 19.12C62.3954 20.208 61.5314 20.928 59.8994 20.928C58.3314 20.928 57.3554 20.224 57.0034 18.928H55.4674C55.9474 21.12 57.5474 22.192 59.8834 22.192C62.2034 22.192 63.8994 21.024 63.8994 18.928C63.8994 14.464 57.2274 16.848 57.2274 13.776ZM65.62 22H67.028V17.664L70.852 22H72.644L68.548 17.296L72.42 13.504H70.692L67.028 17.152V10.48H65.62V22ZM74.0106 12.368H75.4186V10.48H74.0106V12.368ZM74.0106 22H75.4186V13.504H74.0106V22ZM77.6513 22H79.0593V10.48H77.6513V22ZM81.2919 22H82.6999V10.48H81.2919V22ZM85.9725 15.68C85.9725 14.976 86.5805 14.448 87.6365 14.448C88.8365 14.448 89.5725 14.944 89.7805 16.272H91.1885C90.9165 14.16 89.5565 13.296 87.7165 13.296C85.6365 13.296 84.6285 14.48 84.6285 15.776C84.6285 19.296 90.0845 17.376 90.0845 19.696C90.0845 20.496 89.4125 21.072 88.1325 21.072C86.8205 21.072 85.9405 20.416 85.7485 19.232H84.3405C84.6605 21.232 86.0685 22.192 88.0845 22.192C90.0845 22.192 91.4925 21.184 91.4925 19.6C91.4925 16.096 85.9725 18.048 85.9725 15.68Z" fill="#202229" fill-opacity="0.8"/>
<path d="M8 10.001C10.1217 10.001 12.1566 10.8439 13.6569 12.3441C15.1571 13.8444 16 15.8793 16 18.001C16 20.1227 15.1571 22.1576 13.6569 23.6579C12.1566 25.1581 10.1217 26.001 8 26.001C5.87827 26.001 3.84344 25.1581 2.34315 23.6579C0.842855 22.1576 0 20.1227 0 18.001C0 15.8793 0.842855 13.8444 2.34315 12.3441C3.84344 10.8439 5.87827 10.001 8 10.001ZM8 13.501L6.677 16.181L3.72 16.611L5.86 18.696L5.355 21.642L8 20.251L10.645 21.641L10.14 18.696L12.28 16.61L9.323 16.18L8 13.501ZM9 5L14 5.001V8.001L12.637 9.139C11.5059 8.54558 10.2711 8.17583 9 8.05V5.001V5ZM7 5V8.05C5.72935 8.17565 4.49482 8.54505 3.364 9.138L2 8.001V5.001L7 5Z" fill="#A285D0"/>
</svg>
